<?xml version="1.0" encoding="UTF-8"?> <svg xmlns="http://www.w3.org/2000/svg" width="300" height="48" viewBox="0 0 300 48" fill="none"> <g clip-path="url(#clip0_1827_61)"> <path d="M0.000488281 45.6365L17.3121 1.85749C17.3121 1.85749 19.2984 -1.72132 22.9872 1.85749C26.676 5.4363 32.9211 10.952 32.9211 10.952L45.1125 0.215553C45.1125 0.215553 48.2363 -0.885597 49.3713 1.86733C50.5063 4.62027 66.6931 45.6365 66.6931 45.6365C66.6931 45.6365 63.2855 48.3894 60.4479 45.6365L51.0739 21.1305L58.1677 45.9118C58.1677 45.9118 55.0464 47.8388 52.4926 43.9847L45.3988 22.7847L49.6728 42.3428C49.6728 42.3428 45.414 41.5169 43.4277 32.7051C41.4414 23.8932 39.7389 16.185 39.7389 16.185L32.9287 22.2439L26.9674 16.7356L23.5623 32.4298C23.5623 32.4298 21.2821 40.9663 17.0359 42.3428L21.2973 22.5315L14.2034 44.2821C14.2034 44.2821 10.5121 47.5856 8.24205 45.9339L15.3359 21.4279L5.96188 46.2092C5.96188 46.2092 2.27053 48.3992 0.000488281 45.6365Z" fill="white"></path> <path d="M90.2646 34.3059L93.1529 32.9048V11.8843H97.4852L98.9293 14.6863L100.376 17.4909L101.82 20.293L103.264 23.0951L104.708 20.293L106.152 17.4909L107.597 14.6863L109.041 11.8843H113.373V32.9048L116.264 34.3059H107.597L110.485 32.9048V14.6863L109.041 17.4909L107.597 20.293L106.152 23.0951L104.708 25.8972H101.82L100.376 23.0951L98.9293 20.293L97.4852 17.4909L96.0411 14.6863V32.9048L98.9293 34.3059H90.2646Z" fill="white"></path> <path d="M122.32 34.3059V31.5038L123.764 28.6993L125.208 25.8972L126.655 23.0951L125.208 20.293L123.764 17.4909L122.32 14.6863V11.8843H142.543L141.099 14.6863H125.208L126.655 17.4909L128.099 20.293L129.543 23.0951L128.099 25.8972L126.655 28.6993L125.208 31.5038H142.543L141.099 34.3059H122.32Z" fill="white"></path> <path d="M147.6 34.3059L150.489 32.9048V11.8843H167.823L169.267 14.6863L170.711 17.4909L169.267 20.293L167.823 23.0951H153.382V32.9048L156.27 34.3059H147.6ZM166.376 20.2955L167.823 17.4934L166.376 14.6888H153.379V20.2955H166.376Z" fill="white"></path> <path d="M175.24 34.3061L178.131 32.905V13.2855L175.24 11.8845H183.907L181.019 13.2855V20.2932H189.684L191.131 17.4911L192.575 14.6865L194.019 11.8845L195.463 10.4834H198.351V11.8845H196.907L195.463 14.6865L194.019 17.4911L192.575 20.2932H192.529L191.131 21.6942L192.575 23.0953L194.019 25.8973L195.463 28.6994L196.907 31.504L198.351 34.3061H195.463L194.019 31.504L192.575 28.6994L191.131 25.8973L189.684 23.0953H181.019V32.905L183.907 34.3061H175.24Z" fill="white"></path> <path d="M203.962 34.3059L205.406 31.5038L206.85 28.6993L208.294 25.8972L209.741 23.0951L211.185 20.293L212.629 17.4909L214.073 14.6863L215.517 11.8843L216.961 14.6863L218.406 17.4909L219.85 20.293L221.294 23.0951L222.738 25.8972L224.182 28.6993L225.629 31.5038L227.073 34.3059H224.182L222.738 31.5038L221.294 28.6993L219.85 25.8972L218.406 23.0951L216.961 20.293L215.517 17.4909L214.073 20.293L212.629 23.0951L211.185 25.8972L209.741 28.6993L208.294 31.5038L206.85 34.3059H203.962Z" fill="white"></path> <path d="M235.267 34.3059L238.155 32.9048V14.6863H229.488V11.8843H249.711V14.6863H241.044V32.9048L243.932 34.3059H235.267Z" fill="white"></path> <path d="M261.078 34.3059L263.968 32.9048V28.6993L262.524 25.8972L261.078 23.0951L259.634 20.293L258.189 17.4909L256.745 14.6863L255.301 11.8843H258.179L259.623 14.6863L261.068 17.4909L262.514 20.293L263.958 23.0951L265.402 25.8972L266.847 23.0951L268.291 20.293L269.735 17.4909L271.179 14.6863L272.623 11.8843H275.511L274.067 14.6863L272.623 17.4909L271.179 20.293L269.735 23.0951L268.291 25.8972L266.847 28.6993V32.9048L269.735 34.3059H261.078Z" fill="white"></path> <path d="M284.11 34.3059L282.666 31.5038L281.222 28.6993L279.778 25.8972L278.333 23.0951L279.778 20.293L281.222 17.4909L282.666 14.6863L284.11 11.8843H299.998V14.6863H285.557L284.112 17.4909L282.668 20.293L281.224 23.0951L282.668 25.8972L284.112 28.6993L285.557 31.5038H299.998V34.3059H284.11Z" fill="white"></path> </g> <defs> <clipPath id="clip0_1827_61"> <rect width="300" height="47.0309" fill="white"></rect> </clipPath> </defs> </svg> 