<?xml version="1.0" encoding="UTF-8"?> <svg xmlns="http://www.w3.org/2000/svg" width="200" height="80" viewBox="0 0 255 100" fill="none"><path d="M38.765 21.67C39.2179 21.2305 39.8268 20.9888 40.4579 20.9982C41.0889 21.0076 41.6904 21.2672 42.13 21.72C42.6107 22.2213 42.8745 22.8918 42.8642 23.5863C42.8539 24.2807 42.5704 24.9431 42.075 25.43C35.6094 31.9718 31.9885 40.8021 32 50C32 59.95 36.15 68.93 42.82 75.3C43.0776 75.5379 43.2851 75.8248 43.4306 76.1439C43.576 76.463 43.6565 76.8078 43.6672 77.1583C43.6779 77.5088 43.6186 77.858 43.4929 78.1853C43.3672 78.5127 43.1776 78.8117 42.935 79.065C42.5049 79.5093 41.9185 79.7683 41.3003 79.787C40.6822 79.8057 40.0812 79.5825 39.625 79.165C35.6344 75.4283 32.4545 70.9111 30.2827 65.894C28.1109 60.8769 26.9935 55.467 27 50C27 38.93 31.5 28.91 38.765 21.67ZM91.925 25.43C91.4304 24.9425 91.1477 24.2797 91.1384 23.5852C91.129 22.8908 91.3937 22.2206 91.875 21.72C92.3145 21.2687 92.9149 21.0101 93.5447 21.0007C94.1745 20.9913 94.7824 21.232 95.235 21.67C98.9693 25.3816 101.932 29.7959 103.951 34.6584C105.97 39.5208 107.006 44.7349 107 50C107 61.5 102.15 71.87 94.375 79.165C93.9189 79.5825 93.3178 79.8057 92.6997 79.787C92.0816 79.7683 91.4951 79.5093 91.065 79.065C90.8232 78.8118 90.6342 78.5131 90.509 78.1862C90.3837 77.8593 90.3247 77.5108 90.3354 77.1609C90.3461 76.811 90.4263 76.4667 90.5713 76.1481C90.7163 75.8295 90.9232 75.5429 91.18 75.305C94.6046 72.0407 97.3296 68.1141 99.1897 63.764C101.05 59.4139 102.006 54.7311 102 50C102.012 40.8006 98.391 31.9736 91.925 25.43ZM47.66 30.45C48.1056 30.0256 48.7015 29.7957 49.3166 29.8107C49.9317 29.8257 50.5157 30.0844 50.94 30.53C51.98 31.57 51.875 33.28 50.85 34.33C46.7699 38.5247 44.4911 44.1482 44.5 50C44.5 56.45 47.215 62.27 51.57 66.375C52.67 67.41 52.82 69.18 51.745 70.255C51.333 70.6834 50.7719 70.9369 50.178 70.963C49.5842 70.989 49.003 70.7856 48.555 70.395C45.7008 67.8198 43.4198 64.6734 41.8599 61.1599C40.2999 57.6464 39.4959 53.8442 39.5 50C39.4945 46.3628 40.2132 42.761 41.6142 39.4044C43.0152 36.0479 45.0704 33.0039 47.66 30.45ZM83.15 34.33C82.125 33.28 82.02 31.57 83.06 30.53C83.4844 30.0844 84.0683 29.8257 84.6835 29.8107C85.2986 29.7957 85.8945 30.0256 86.34 30.45C88.929 33.0044 90.9838 36.0485 92.3847 39.4049C93.7856 42.7613 94.5047 46.3629 94.5 50C94.5055 53.8447 93.7026 57.6476 92.1435 61.162C90.5844 64.6764 88.3039 67.8238 85.45 70.4C85.0002 70.7923 84.4162 70.9958 83.8199 70.9679C83.2236 70.9399 82.6612 70.6827 82.25 70.25C81.18 69.18 81.33 67.41 82.43 66.375C84.6654 64.2739 86.4462 61.7368 87.6622 58.9202C88.8783 56.1037 89.5038 53.0678 89.5 50C89.509 44.1482 87.2302 38.5247 83.15 34.33ZM67 43.75C65.3424 43.75 63.7527 44.4084 62.5806 45.5805C61.4085 46.7527 60.75 48.3424 60.75 50C60.75 51.6576 61.4085 53.2473 62.5806 54.4194C63.7527 55.5915 65.3424 56.25 67 56.25C68.6576 56.25 70.2473 55.5915 71.4194 54.4194C72.5915 53.2473 73.25 51.6576 73.25 50C73.25 48.3424 72.5915 46.7527 71.4194 45.5805C70.2473 44.4084 68.6576 43.75 67 43.75Z" fill="#46B6F5"></path><path d="M131.8 24H137.26V68.03H151.26V73H131.8V24ZM160.844 73H155.384V24H160.844V73ZM178.568 66.63L186.478 24H191.518L182.348 73H174.298L165.058 24H170.588L178.568 66.63ZM213.146 50.6H201.176V68.03H215.876V73H195.716V24H215.876V28.97H201.176V45.7H213.146V50.6Z" fill="url(#paint0_linear_3873_62)"></path><rect x="1.5" y="1.5" width="252" height="97" rx="18.5" stroke="url(#paint1_linear_3873_62)" stroke-width="3"></rect><defs><linearGradient id="paint0_linear_3873_62" x1="129" y1="42.4" x2="218.999" y2="38.8687" gradientUnits="userSpaceOnUse"><stop stop-color="#41C1F4"></stop><stop offset="1" stop-color="#9130EA"></stop></linearGradient><linearGradient id="paint1_linear_3873_62" x1="1.19452e-06" y1="50.4065" x2="255" y2="50.4065" gradientUnits="userSpaceOnUse"><stop stop-color="#3FC4F3"></stop><stop offset="1" stop-color="#9030EA"></stop></linearGradient></defs></svg> 