<?xml version="1.0" encoding="UTF-8"?> <svg xmlns="http://www.w3.org/2000/svg" width="40" height="7" viewBox="0 0 40 7" fill="none"> <path d="M39.7095 0.95398C39.9603 0.83826 40.0697 0.541197 39.954 0.290471C39.8383 0.0397449 39.5412 -0.0696994 39.2905 0.0460203L39.7095 0.95398ZM0.393785 1.51141C0.123945 1.57007 -0.047249 1.83638 0.0114118 2.10621L0.967345 6.50351C1.02601 6.77335 1.29231 6.94454 1.56215 6.88588C1.83199 6.82722 2.00318 6.56092 1.94452 6.29108L1.0948 2.38237L5.00351 1.53265C5.27335 1.47399 5.44454 1.20769 5.38588 0.937852C5.32722 0.668012 5.06092 0.496818 4.79108 0.555478L0.393785 1.51141ZM39.2905 0.0460203C37.1438 1.03681 33.4404 2.52843 29.3303 3.77141C25.213 5.01654 20.7267 6 17 6V7C20.8733 7 25.4703 5.98346 29.6197 4.72859C33.7763 3.47157 37.5229 1.96319 39.7095 0.95398L39.2905 0.0460203ZM17 6C9.51484 6 3.04065 3.03887 0.770379 1.57941L0.229621 2.42059C2.62602 3.96113 9.28516 7 17 7V6Z" fill="black"></path> </svg> 